/* XPM */
static const char * maidsafe_logo_small_xpm[] = {
"16 15 58 1",
"    c None",
".   c #75B137",
"+   c #6EB02A",
"@   c #9DB882",
"#   c #70B02D",
"$   c #7DB245",
"%   c #BCBDBB",
"&   c #BEBEBE",
"*   c #73B134",
"=   c #6EB02B",
"-   c #A8BA96",
";   c #B8B9B8",
">   c #BDBDBC",
",   c #6FB02B",
"'   c #87B459",
")   c #595D55",
"!   c #858982",
"~   c #72B031",
"{   c #71B030",
"]   c #B1BBA6",
"^   c #13170E",
"/   c #1C1F1A",
"(   c #B4B6B3",
"_   c #BDBDBD",
":   c #92B66D",
"<   c #000000",
"[   c #636660",
"}   c #71B02F",
"|   c #76B13A",
"1   c #B7BCB2",
"2   c #11170C",
"3   c #0B0D0A",
"4   c #A4A6A1",
"5   c #9EB883",
"6   c #030502",
"7   c #42463E",
"8   c #BCBDBC",
"9   c #6FB02D",
"0   c #7FB34A",
"a   c #BBBDB9",
"b   c #13190E",
"c   c #040403",
"d   c #8C8F89",
"e   c #75B138",
"f   c #7EB247",
"g   c #73B135",
"h   c #6EAF2A",
"i   c #639E27",
"j   c #0B1304",
"k   c #282B25",
"l   c #B6B7B5",
"m   c #4F7E1F",
"n   c #4F7E1E",
"o   c #273F0E",
"p   c #6F726A",
"q   c #070A05",
"r   c #121410",
"s   c #AAACA8",
"                ",
"                ",
"      .+@       ",
"      #$%&      ",
"     *=-;>&     ",
"     ,'>)!&     ",
"    ~{]&^/(_    ",
"    +:_  <[&    ",
"   }|1&  234&   ",
"  .+5_    678   ",
"  90a&    bcd&  ",
" *+efghhhhijkl& ",
" mnnnnnnnnno<p& ",
" q<<<<<<<<<<<rs ",
"                "};
