/* XPM */
static char * maidsafe_logo_tick_ok_xpm[] = {
"48 48 337 2",
"     c None",
".    c #6FB02C",
"+    c #6EB02A",
"@    c #72B031",
"#    c #98B779",
"$    c #78B13D",
"%    c #6EB02B",
"&    c #83B350",
"*    c #BABDB8",
"=    c #BEBEBE",
"-    c #80B34C",
";    c #70B02D",
">    c #73B133",
",    c #A8BA95",
"'    c #BDBDBD",
")    c #74B035",
"!    c #6DAF2A",
"~    c #8CB561",
"{    c #7CB243",
"]    c #70B02E",
"^    c #6DB02A",
"/    c #6EAF2A",
"(    c #75B138",
"_    c #B2BBA8",
":    c #72B033",
"<    c #96B774",
"[    c #77B13B",
"}    c #6FB02D",
"|    c #7DB246",
"1    c #B6BCAF",
"2    c #71B030",
"3    c #A1B889",
"4    c #BDBDBC",
"5    c #76B13A",
"6    c #86B456",
"7    c #B7BCB2",
"8    c #7AB240",
"9    c #A8BA96",
"0    c #BCBDBB",
"a    c #BABBB9",
"b    c #949C8C",
"c    c #B5B7B3",
"d    c #75B137",
"e    c #6FB02B",
"f    c #91B56B",
"g    c #B9BDB5",
"h    c #9EA39A",
"i    c #31372B",
"j    c #7B8470",
"k    c #78B23E",
"l    c #ADBBA0",
"m    c #B9BAB9",
"n    c #48533D",
"o    c #020302",
"p    c #2E3429",
"q    c #ACAFA8",
"r    c #73B034",
"s    c #6DAF29",
"t    c #9AB77C",
"u    c #BABDB6",
"v    c #8B9382",
"w    c #0A0E06",
"x    c #000000",
"y    c #0A0C09",
"z    c #5B6453",
"A    c #82B34E",
"B    c #B1BBA6",
"C    c #37402E",
"D    c #010100",
"E    c #1E2319",
"F    c #8A9280",
"G    c #73B033",
"H    c #70B02F",
"I    c #A1B989",
"J    c #BBBDB9",
"K    c #424F33",
"L    c #050603",
"M    c #3D4238",
"N    c #B4B6B2",
"O    c #89B45D",
"P    c #B3BCAA",
"Q    c #17210D",
"R    c #161A12",
"S    c #76806B",
"T    c #73B135",
"U    c #A7BA93",
"V    c #BCBDBC",
"W    c #495939",
"X    c #020201",
"Y    c #333630",
"Z    c #AAAEA6",
"`    c #77B13C",
" .   c #94B670",
"..   c #B7BCB1",
"+.   c #1E2B11",
"@.   c #0B0F08",
"#.   c #596151",
"$.   c #AABA99",
"%.   c #525F45",
"&.   c #2A2E26",
"*.   c #979E8F",
"=.   c #9BB77D",
"-.   c #334422",
";.   c #040602",
">.   c #4B5046",
",.   c #BBBBBA",
"'.   c #79B13E",
").   c #85B354",
"!.   c #AEBBA1",
"~.   c #090D05",
"{.   c #191E13",
"].   c #747D6A",
"^.   c #BCBCBC",
"/.   c #6DB029",
"(.   c #73B134",
"_.   c #9FB885",
":.   c #3A492C",
"<.   c #020301",
"[.   c #020300",
"}.   c #A4A89F",
"|.   c #78B13C",
"1.   c #8BB560",
"2.   c #161F0E",
"3.   c #11160C",
"4.   c #697160",
"5.   c #BABDB7",
"6.   c #BCC0B7",
"7.   c #B9C0B3",
"8.   c #B8BFB0",
"9.   c #B4BFA9",
"0.   c #79B23F",
"a.   c #7AB241",
"b.   c #A5B990",
"c.   c #39462B",
"d.   c #050703",
"e.   c #030302",
"f.   c #10120F",
"g.   c #555F4C",
"h.   c #ABBF97",
"i.   c #B2D095",
"j.   c #A4CC7B",
"k.   c #99C86A",
"l.   c #95C466",
"m.   c #93C263",
"n.   c #91BF60",
"o.   c #76B139",
"p.   c #92B66D",
"q.   c #1F2914",
"r.   c #030303",
"s.   c #232620",
"t.   c #707C63",
"u.   c #ACC693",
"v.   c #B3D58F",
"w.   c #A2CC77",
"x.   c #96C666",
"y.   c #8FC25A",
"z.   c #89BF52",
"A.   c #85BC4D",
"B.   c #81B749",
"C.   c #79AE42",
"D.   c #78B13E",
"E.   c #6EB029",
"F.   c #6EAF29",
"G.   c #80B24B",
"H.   c #A9BA98",
"I.   c #2C3227",
"J.   c #7C896F",
"K.   c #BBD79F",
"L.   c #A7CF7E",
"M.   c #86BD4D",
"N.   c #71B12E",
"O.   c #70AA35",
"P.   c #69A030",
"Q.   c #97B777",
"R.   c #95A980",
"S.   c #B9D69C",
"T.   c #91C35E",
"U.   c #72B230",
"V.   c #6BAC29",
"W.   c #66A427",
"X.   c #66A327",
"Y.   c #66A229",
"Z.   c #5C9324",
"`.   c #79B23E",
" +   c #AFBBA3",
".+   c #C0DBA4",
"++   c #A4CD7A",
"@+   c #629C25",
"#+   c #82A95A",
"$+   c #94B572",
"%+   c #78AF3F",
"&+   c #5D9425",
"*+   c #548720",
"=+   c #83B351",
"-+   c #9CB87F",
";+   c #9EB882",
">+   c #98B778",
",+   c #B3D691",
"'+   c #B1D48D",
")+   c #85AB5D",
"!+   c #E2EAD9",
"~+   c #FFFFFF",
"{+   c #9AC66B",
"]+   c #67A22B",
"^+   c #538520",
"/+   c #79B63B",
"(+   c #A4CE7A",
"_+   c #9ECA72",
":+   c #6FAF2E",
"<+   c #67A527",
"[+   c #64A026",
"}+   c #69A728",
"|+   c #6DAE29",
"1+   c #629D25",
"2+   c #87AE60",
"3+   c #E0E9D7",
"4+   c #FEFEFE",
"5+   c #DAEBC9",
"6+   c #91C35D",
"7+   c #52831F",
"8+   c #4C7A1D",
"9+   c #7CB244",
"0+   c #A0CB73",
"a+   c #92C45F",
"b+   c #68A727",
"c+   c #7BA84D",
"d+   c #A8C38C",
"e+   c #8CB95D",
"f+   c #6CAB2A",
"g+   c #629C26",
"h+   c #88AD61",
"i+   c #DFE8D5",
"j+   c #DAEAC9",
"k+   c #98C768",
"l+   c #78B539",
"m+   c #51821F",
"n+   c #4D7C1D",
"o+   c #74B136",
"p+   c #78B538",
"q+   c #8BBF55",
"r+   c #9BBB7A",
"s+   c #DDECCE",
"t+   c #8EBA61",
"u+   c #5B8E27",
"v+   c #BACCA6",
"w+   c #DCEBCB",
"x+   c #9CC96E",
"y+   c #7AB63C",
"z+   c #4E7D1E",
"A+   c #4A761C",
"B+   c #649136",
"C+   c #5E9723",
"D+   c #8EBF5B",
"E+   c #6AAA28",
"F+   c #80B34D",
"G+   c #D0E4BB",
"H+   c #AECA91",
"I+   c #90B36C",
"J+   c #E0E9D8",
"K+   c #BCDA9C",
"L+   c #81BA45",
"M+   c #70B12C",
"N+   c #48731B",
"O+   c #436B19",
"P+   c #3B5521",
"Q+   c #20340C",
"R+   c #324B19",
"S+   c #759F49",
"T+   c #82BA49",
"U+   c #6CAD29",
"V+   c #ACD087",
"W+   c #DEEAD2",
"X+   c #E3EDD9",
"Y+   c #D5E8C2",
"Z+   c #9AC86B",
"`+   c #75B435",
" @   c #3D6217",
".@   c #385A15",
"+@   c #354227",
"@@   c #030501",
"#@   c #0D1109",
"$@   c #4E6932",
"%@   c #7FB647",
"&@   c #72B032",
"*@   c #86BC4D",
"=@   c #D0E5BA",
"-@   c #98C668",
";@   c #79B63A",
">@   c #558820",
",@   c #345313",
"'@   c #212C15",
")@   c #263417",
"!@   c #6C9B3B",
"~@   c #72AD35",
"{@   c #70B12D",
"]@   c #B6D794",
"^@   c #D3E7BF",
"/@   c #96C564",
"(@   c #69A828",
"_@   c #3A5D16",
":@   c #2E4A11",
"<@   c #080C04",
"[@   c #0B1007",
"}@   c #3F5A23",
"|@   c #6BA132",
"1@   c #6BA82B",
"2@   c #6EAF2B",
"3@   c #89BE51",
"4@   c #A5CE7B",
"5@   c #90C25C",
"6@   c #76B436",
"7@   c #4A771C",
"8@   c #2C4711",
"9@   c #344225",
"0@   c #19220F",
"a@   c #1A2410",
"b@   c #273717",
"c@   c #486B24",
"d@   c #609628",
"e@   c #619A25",
"f@   c #68A52A",
"g@   c #71B22F",
"h@   c #538620",
"i@   c #395C16",
"j@   c #2D4614",
"k@   c #578924",
"l@   c #578B21",
"m@   c #558920",
"n@   c #53851F",
"o@   c #50801E",
"p@   c #3F6417",
"q@   c #335113",
"r@   c #2A4310",
"s@   c #49761C",
"t@   c #49741B",
"u@   c #416819",
"v@   c #355514",
"                                                                                                ",
"                                                                                                ",
"                                                                                                ",
"                                                                                                ",
"                                                                                                ",
"                                          . + + + @ #                                           ",
"                                        $ . + + % & * =                                         ",
"                                      - ; + + + > , ' =                                         ",
"                                      ) % + + ! ~ ' = = =                                       ",
"                                    { ] ^ + / ( _ ' = ' =                                       ",
"                                    : % + ^ ^ < = ' = ' = =                                     ",
"                                  [ } + + + | 1 ' = = ' = = =                                   ",
"                                  2 + ^ + ] 3 4 = ' = = = = =                                   ",
"                                5 } + + + 6 7 ' = = ' ' ' = ' =                                 ",
"                              8 2 + + + > 9 0 = = a b c ' = = '                                 ",
"                              d e + / + f g = = 4 h i j = = = = '                               ",
"                            ( ; + + / k l 4 = = m n o p q = = = =                               ",
"                            r s + + + t u = = = v w x y z = = = = =                             ",
"                          5 . + / + A B ' = = = C x x D E F = = = = =                           ",
"                          G + + + H I J = = = = K x x x L M N = = = =                           ",
"                        5 % / s + O P ' = = =     Q x x x R S ' = = = =                         ",
"                      [ H + + + T U V = = = =     W x x x X Y Z = = = =                         ",
"                      ` + / + +  ...= = = =         +.x x x @.#.= = = ' =                       ",
"                    5 + + + / 8 $.' = = =           %.x x x x &.*.= = = =                       ",
"                    d + + + % =.* = = = '             -.x x x ;.>.,.' ' = '                     ",
"                  '.+ + ! + ).!.' = = =                 ~.x x x {.].^.= = = =                   ",
"                  @ /.+ + (._.0 = = = '                 :.<.x x [.M }.= = ' '                   ",
"                |.! + + . 1._ ' = = =                     2.x x x 3.4.5.6.7.8.9.                ",
"              0.] ! + + a.b.' = = = =                     c.d.x e.f.g.h.i.j.k.l.m.n.            ",
"              o./ + ^ H p...= = ' =                         q.r.s.t.u.v.w.x.y.z.A.B.C.          ",
"            D.E.^ F.+ G.H.' = = '                             I.J.K.L.M.N.+ + + e r O.P.        ",
"            ( s F.^ r Q.5.= = = =                             R.S.T.U.+ + + ! / V.W.X.Y.Z.      ",
"          `.+ + ! % 6  += = = =                               .+++U./ + + / + V.@+#+$+%+&+*+    ",
"          @ + + ! . =+-+;+;+;+>+-                           ,+'+M.+ + F./ ^ V.@+)+!+~+{+]+^+    ",
"        D.s + + F.+ F.+ + + + ^ ! + + + ^ + ^ + ! + + ^ /./+(+_+:+<+[+}+|+V.1+2+3+4+5+6+:+7+8+  ",
"      9+; + + + ! + + ! + + / + + + + + + + + + F.+ + F.+ /+0+a+b+c+d+e+f+g+h+i+~+j+k+l+% m+n+  ",
"      o++ + ! + + + / + s + + + + + + + + + + + + E.+ ^ / p+k+q+W.r+~+s+t+u+v+~+w+x+y+. / z+A+  ",
"    B+C+C+C+C+C+C+C+C+C+C+C+C+C+C+C+C+C+C+C+C+C+C+C+C+C+C+P.D+A.E+F+G+~+H+I+J+~+K+L+M+s + N+O+  ",
"    P+Q+Q+Q+Q+Q+Q+Q+Q+Q+Q+Q+Q+Q+Q+Q+Q+Q+Q+Q+Q+Q+Q+Q+Q+Q+Q+R+S+T+% U+V+4+W+X+4+Y+Z+`++ s E+ @.@  ",
"    +@@@x x x x x x x x x x x x x x x x x x x x x x x x x #@$@%@&@/ *@=@~+~+Y+-@;@. / + >@,@    ",
"      '@x x x x x x x x x x x x x x x x x x x x x x x x x o )@!@~@/ {@]@4+^@/@l+. + + (@_@:@    ",
"        <@x x x x x x x x x x x x x x x x x x x x x x x x x [@}@|@1@2@3@4@5@6@. + / (@7@8@      ",
"        9@0@0@0@0@0@0@0@0@0@0@0@0@0@0@0@0@0@0@0@0@0@0@0@0@0@a@b@c@d@e@f@2 g@% + E+h@i@j@        ",
"                                                                  k@l@m@*+n@o@A+p@q@r@          ",
"                                                                      s@8+8+t@u@v@              ",
"                                                                                                ",
"                                                                                                ",
"                                                                                                "};
